#!OML:ASF H:\GeneralSubjects\Female5\Project 1\Capture day 1\Session 1\Female5.ASF
:FULLY-SPECIFIED
:DEGREES
323
root -34.264 15.572 2.7681 -179.597 29.6537 174.481
lowerback 8.54403 -0.720415 -16.3365
upperback -8.7966 -2.30077 6.45806
thorax -13.6215 1.2207 17.2074
lowerneck -22.3144 1.68447 -2.31806
upperneck 40.6956 11.8949 -8.69169
head 20.5885 4.23168 -0.663975
rclavicle -2.82274e-014 4.92986e-014
rhumerus 3.85792 36.2752 -47.8705
rradius 127.622
rwrist -46.6158
rhand -3.86391 -12.506
rfingers 7.12502
rthumb 21.8846 -41.2883
lclavicle -2.82274e-014 4.92986e-014
lhumerus -74.9958 34.8844 34.0656
lradius 29.4062
lwrist -10.4452
lhand -24.7387 40.2895
lfingers 7.12502
lthumb 1.76397 70.2619
rfemur -20.1558 32.5496 -5.21748
rtibia 2.93896
rfoot -35.2145 -34.7489
rtoes -7.113
lfemur 11.0669 -24.5438 -40.4883
ltibia -0.407047
lfoot -19.0391 19.8902
ltoes -66.4503
324
root -34.3931 15.5714 2.77648 -179.576 29.2722 174.072
lowerback 9.01124 -0.676492 -16.0933
upperback -9.19721 -2.27405 6.36252
thorax -14.4031 1.34656 17.0112
lowerneck -21.763 1.5504 -2.54491
upperneck 40.9514 11.7856 -8.45008
head 20.5434 4.24085 -0.534866
rclavicle 8.62725e-014 2.70347e-014
rhumerus 6.17646 40.712 -45.6722
rradius 130.536
rwrist -47.8155
rhand -0.228085 -12.8554
rfingers 7.12502
rthumb 25.3719 -41.1874
lclavicle 8.62725e-014 2.70347e-014
lhumerus -75.2577 33.947 34.2524
lradius 29.6469
lwrist -10.3287
lhand -24.9656 40.2566
lfingers 7.12502
lthumb 1.54481 70.2307
rfemur -20.3772 32.7776 -6.07344
rtibia 2.86622
rfoot -35.4659 -34.5994
rtoes -6.52942
lfemur 10.6229 -23.8213 -40.8805
ltibia -1.00004
lfoot -17.6587 19.1604
ltoes -66.7212
325
root -34.4853 15.5569 2.79087 -179.184 29.1446 174.275
lowerback 8.70544 -0.635059 -15.9133
upperback -9.24198 -2.08357 6.58058
thorax -14.3472 1.44605 17.1271
lowerneck -21.4718 1.44414 -2.73522
upperneck 40.8814 11.6403 -8.37452
head 20.3767 4.1912 -0.501825
rclavicle 2.3059e-014 2.70347e-014
rhumerus 9.19372 44.4311 -42.9723
rradius 133.067
rwrist -48.8133
rhand 5.43671 -12.8521
rfingers 7.12502
rthumb 30.7864 -40.2941
lclavicle 2.3059e-014 2.70347e-014
lhumerus -75.0336 33.5578 34.945
lradius 29.803
lwrist -10.0898
lhand -25.3228 40.2667
lfingers 7.12502
lthumb 1.19981 70.2431
rfemur -21.1562 33.6376 -6.48058
rtibia 3.13979
rfoot -36.8553 -33.8524
rtoes -3.87953
lfemur 9.94832 -23.3476 -40.4135
ltibia -1.29619
lfoot -17.2457 18.2574
ltoes -66.299
326
root -34.5876 15.5557 2.7984 -178.949 28.9072 174.256
lowerback 8.72519 -0.695005 -15.4292
upperback -9.38246 -2.0751 6.57748
thorax -14.5355 1.43852 16.8432
lowerneck -21.3732 1.43699 -2.84239
upperneck 40.8536 11.5521 -8.18472
head 20.2866 4.16997 -0.412728
rclavicle 2.18663e-014 7.31528e-014
rhumerus 12.3134 47.9864 -40.5892
rradius 134.959
rwrist -48.8402
rhand 4.60575 -13.402
rfingers 7.12502
rthumb 29.9939 -40.9904
lclavicle 2.18663e-014 7.31528e-014
lhumerus -74.8274 33.1064 35.6074
lradius 30.0265
lwrist -9.42672
lhand -25.7567 40.3952
lfingers 7.12502
lthumb 0.780725 70.3735
rfemur -21.4128 33.2708 -6.5023
rtibia 3.15016
rfoot -35.5187 -34.3959
rtoes -7.01803
lfemur 9.22343 -22.8276 -40.304
ltibia -1.27551
lfoot -16.7344 17.4571
ltoes -66.2315
327
root -34.6856 15.5648 2.80218 -178.784 28.7221 174.322
lowerback 8.7511 -0.782181 -14.8075
upperback -9.4469 -2.09015 6.55474
thorax -14.6295 1.37892 16.448
lowerneck -21.2887 1.48467 -2.91468
upperneck 40.8348 11.5086 -7.94347
head 20.204 4.17443 -0.29499
rclavicle -3.61788e-014 7.31528e-014
rhumerus 15.7241 51.2671 -37.7965
rradius 136.659
rwrist -48.9955
rhand 8.52021 -13.3824
rfingers 7.12502
rthumb 33.7215 -40.2276
lclavicle -3.61788e-014 7.31528e-014
lhumerus -74.7059 32.96 36.0932
lradius 30.3307
lwrist -8.67135
lhand -26.0091 40.4737
lfingers 7.12502
lthumb 0.537002 70.4528
rfemur -21.503 33.3429 -6.42523
rtibia 3.14306
rfoot -35.7244 -34.5877
rtoes -8.03262
lfemur 9.17751 -22.6714 -40.3995
ltibia -2.02245
lfoot -15.6808 17.6297
ltoes -66.9633
328
root -34.7779 15.5798 2.80285 -178.66 28.5836 174.237
lowerback 8.634 -0.744407 -14.6383
upperback -9.49993 -1.96907 6.61846
thorax -14.6706 1.43951 16.4006
lowerneck -21.0197 1.3797 -3.0659
upperneck 40.8149 11.3564 -7.85623
head 20.0821 4.12656 -0.265318
rclavicle 3.49861e-014 -7.79236e-014
rhumerus 18.7043 53.7361 -34.9357
rradius 137.713
rwrist -48.0407
rhand 9.71895 -13.8843
rfingers 7.12502
rthumb 34.8597 -40.473
lclavicle 3.49861e-014 -7.79236e-014
lhumerus -74.411 32.9071 37.1045
lradius 30.6545
lwrist -7.9003
lhand -26.0491 40.5148
lfingers 7.12502
lthumb 0.49836 70.494
rfemur -21.6772 33.3177 -6.54024
rtibia 3.24434
rfoot -35.6049 -35.2722
rtoes -9.63806
lfemur 9.29155 -22.7499 -40.716
ltibia -2.92043
lfoot -15.1741 17.5677
ltoes -66.9821
329
root -34.8681 15.6001 2.7995 -178.666 28.4396 173.876
lowerback 8.58167 -0.730083 -14.6586
upperback -9.60348 -1.94127 6.58092
thorax -14.7725 1.47705 16.3672
lowerneck -20.7311 1.31353 -3.16867
upperneck 40.8265 11.2166 -7.70525
head 19.9702 4.09875 -0.210873
rclavicle -4.37326e-015 -1.90833e-014
rhumerus 21.1219 56.0758 -32.6384
rradius 138.423
rwrist -46.944
rhand 10.4874 -13.8546
rfingers 7.12502
rthumb 35.5884 -40.2712
lclavicle -4.37326e-015 -1.90833e-014
lhumerus -74.0398 32.8045 38.2279
lradius 30.899
lwrist -7.02941
lhand -25.7469 40.6745
lfingers 7.12502
lthumb 0.790212 70.6528
rfemur -21.6333 32.2359 -6.46935
rtibia 3.29015
rfoot -34.8135 -33.2658
rtoes -5.84219
lfemur 9.12229 -22.4785 -41.1944
ltibia -3.30712
lfoot -14.996 16.9501
ltoes -66.6558
330
root -34.9424 15.6169 2.79595 -178.613 28.4037 173.832
lowerback 8.56256 -0.723492 -14.4824
upperback -9.6811 -1.88831 6.58962
thorax -14.8766 1.50664 16.2679
lowerneck -20.4754 1.29669 -3.19837
upperneck 40.8619 11.0891 -7.4877
head 19.8789 4.09046 -0.134321
rclavicle 7.95139e-015 -6.83819e-014
rhumerus 22.8303 57.8808 -30.994
rradius 138.955
rwrist -46.1942
rhand 10.8134 -13.7102
rfingers 7.12502
rthumb 35.8975 -40.0518
lclavicle 7.95139e-015 -6.83819e-014
lhumerus -73.6305 32.7152 39.29
lradius 31.0811
lwrist -6.15586
lhand -25.3584 40.6173
lfingers 7.12502
lthumb 1.16542 70.5939
rfemur -21.5096 32.3699 -6.29044
rtibia 3.1478
rfoot -36.0478 -34.0497
rtoes -6.27725
lfemur 9.08556 -22.1567 -41.3596
ltibia -3.73597
lfoot -14.5638 16.7584
ltoes -66.7694
331
root -35.0002 15.6274 2.79361 -178.445 28.4563 174.087
lowerback 8.48504 -0.736233 -14.1728
upperback -9.69589 -1.82057 6.67383
thorax -14.8753 1.51674 16.1686
lowerneck -20.3398 1.31793 -3.19429
upperneck 40.8472 10.9669 -7.25066
head 19.7885 4.07823 -0.0531853
rclavicle -1.19271e-014 2.22639e-014
rhumerus 24.0384 59.1493 -29.8711
rradius 139.298
rwrist -46.0614
rhand 10.9813 -13.7751
rfingers 7.12502
rthumb 36.0565 -40.0777
lclavicle -1.19271e-014 2.22639e-014
lhumerus -73.0782 32.5779 40.5937
lradius 31.3259
lwrist -5.17105
lhand -25.0549 40.3172
lfingers 7.12502
lthumb 1.45857 70.292
rfemur -21.4302 33.0367 -5.88925
rtibia 2.98997
rfoot -37.2572 -32.6395
rtoes -3.01085
lfemur 9.19124 -22.2738 -41.3211
ltibia -4.19274
lfoot -14.2819 17.1142
ltoes -66.9448
332
root -35.0516 15.6345 2.79237 -178.287 28.4869 174.305
lowerback 8.37807 -0.78158 -13.9614
upperback -9.67125 -1.81515 6.76371
thorax -14.7816 1.49266 16.1408
lowerneck -20.3007 1.37594 -3.15552
upperneck 40.7851 10.8577 -7.00605
head 19.6965 4.06651 0.0281081
rclavicle 4.6118e-014 -1.59028e-015
rhumerus 24.8196 60.1815 -29.1765
rradius 139.423
rwrist -46.112
rhand 10.5484 -13.6857
rfingers 7.12502
rthumb 35.6463 -40.0884
lclavicle 4.6118e-014 -1.59028e-015
lhumerus -72.4065 32.4751 42.0448
lradius 31.5609
lwrist -4.38229
lhand -24.4178 40.1147
lfingers 7.12502
lthumb 2.07386 70.0843
rfemur -21.3893 33.5079 -5.45071
rtibia 2.8522
rfoot -36.7389 -31.3482
rtoes 0.42863
lfemur 9.17403 -22.5069 -41.3024
ltibia -4.39397
lfoot -14.213 17.4193
ltoes -66.9272
